<svg xmlns="http://www.w3.org/2000/svg" xmlns:xlink="http://www.w3.org/1999/xlink" width="304" zoomAndPan="magnify" viewBox="0 0 228 96.749999" height="129" preserveAspectRatio="xMidYMid meet" version="1.2"><defs><clipPath id="c0f37a9916"><path d="M 0.292969 0 L 96.351562 0 L 96.351562 96.058594 L 0.292969 96.058594 Z M 0.292969 0 "/></clipPath><clipPath id="55d8d2aec0"><path d="M 48.320312 0 C 21.796875 0 0.292969 21.503906 0.292969 48.027344 C 0.292969 74.554688 21.796875 96.058594 48.320312 96.058594 C 74.847656 96.058594 96.351562 74.554688 96.351562 48.027344 C 96.351562 21.503906 74.847656 0 48.320312 0 Z M 48.320312 0 "/></clipPath><clipPath id="59c9c2d212"><path d="M 0.292969 0 L 96.046875 0 L 96.046875 95.753906 L 0.292969 95.753906 Z M 0.292969 0 "/></clipPath><clipPath id="c7ee288be8"><path d="M 48.171875 0 C 21.730469 0 0.292969 21.433594 0.292969 47.875 C 0.292969 74.316406 21.730469 95.753906 48.171875 95.753906 C 74.613281 95.753906 96.046875 74.316406 96.046875 47.875 C 96.046875 21.433594 74.613281 0 48.171875 0 Z M 48.171875 0 "/></clipPath><clipPath id="dc592aa515"><path d="M 131.621094 0 L 227.675781 0 L 227.675781 96.058594 L 131.621094 96.058594 Z M 131.621094 0 "/></clipPath><clipPath id="b701adffd1"><path d="M 179.648438 0 C 153.121094 0 131.621094 21.503906 131.621094 48.027344 C 131.621094 74.554688 153.121094 96.058594 179.648438 96.058594 C 206.171875 96.058594 227.675781 74.554688 227.675781 48.027344 C 227.675781 21.503906 206.171875 0 179.648438 0 Z M 179.648438 0 "/></clipPath><clipPath id="454a30d98e"><path d="M 131.621094 0 L 227.371094 0 L 227.371094 95.753906 L 131.621094 95.753906 Z M 131.621094 0 "/></clipPath><clipPath id="9c9542b50c"><path d="M 179.496094 0 C 153.054688 0 131.621094 21.433594 131.621094 47.875 C 131.621094 74.316406 153.054688 95.753906 179.496094 95.753906 C 205.9375 95.753906 227.371094 74.316406 227.371094 47.875 C 227.371094 21.433594 205.9375 0 179.496094 0 Z M 179.496094 0 "/></clipPath></defs><g id="555f6dacd1"><g clip-rule="nonzero" clip-path="url(#c0f37a9916)"><g clip-rule="nonzero" clip-path="url(#55d8d2aec0)"><path style=" stroke:none;fill-rule:nonzero;fill:#c38792;fill-opacity:1;" d="M 0.292969 0 L 96.351562 0 L 96.351562 96.058594 L 0.292969 96.058594 Z M 0.292969 0 "/></g></g><g clip-rule="nonzero" clip-path="url(#59c9c2d212)"><g clip-rule="nonzero" clip-path="url(#c7ee288be8)"><path style="fill:none;stroke-width:4;stroke-linecap:butt;stroke-linejoin:miter;stroke:#505050;stroke-opacity:1;stroke-miterlimit:4;" d="M 64.205506 -0.00000267513 C 28.747012 -0.00000267513 -0.00113566 28.742907 -0.00113566 64.201401 C -0.00113566 99.659895 28.747012 128.408043 64.205506 128.408043 C 99.664 128.408043 128.40691 99.659895 128.40691 64.201401 C 128.40691 28.742907 99.664 -0.00000267513 64.205506 -0.00000267513 Z M 64.205506 -0.00000267513 " transform="matrix(0.7457,0,0,0.7457,0.293816,0.00000199485)"/></g></g><g clip-rule="nonzero" clip-path="url(#dc592aa515)"><g clip-rule="nonzero" clip-path="url(#b701adffd1)"><path style=" stroke:none;fill-rule:nonzero;fill:#658ca1;fill-opacity:1;" d="M 131.621094 0 L 227.675781 0 L 227.675781 96.058594 L 131.621094 96.058594 Z M 131.621094 0 "/></g></g><g clip-rule="nonzero" clip-path="url(#454a30d98e)"><g clip-rule="nonzero" clip-path="url(#9c9542b50c)"><path style="fill:none;stroke-width:4;stroke-linecap:butt;stroke-linejoin:miter;stroke:#505050;stroke-opacity:1;stroke-miterlimit:4;" d="M 64.203502 -0.00000267513 C 28.745008 -0.00000267513 0.00209832 28.742907 0.00209832 64.201401 C 0.00209832 99.659895 28.745008 128.408043 64.203502 128.408043 C 99.661996 128.408043 128.404906 99.659895 128.404906 64.201401 C 128.404906 28.742907 99.661996 -0.00000267513 64.203502 -0.00000267513 Z M 64.203502 -0.00000267513 " transform="matrix(0.7457,0,0,0.7457,131.619529,0.00000199485)"/></g></g></g></svg>