<svg xmlns="http://www.w3.org/2000/svg" xmlns:xlink="http://www.w3.org/1999/xlink" width="92" zoomAndPan="magnify" viewBox="0 0 69 67.499998" height="90" preserveAspectRatio="xMidYMid meet" version="1.2"><defs><clipPath id="d4e60e6df9"><path d="M 0.253906 31 L 20 31 L 20 66.257812 L 0.253906 66.257812 Z M 0.253906 31 "/></clipPath><clipPath id="38efea81a0"><path d="M 24 14 L 44 14 L 44 66.257812 L 24 66.257812 Z M 24 14 "/></clipPath><clipPath id="e0dc837892"><path d="M 48 0 L 68.746094 0 L 68.746094 66.257812 L 48 66.257812 Z M 48 0 "/></clipPath></defs><g id="6c3146a6e4"><path style=" stroke:none;fill-rule:nonzero;fill:#fbf0d4;fill-opacity:1;" d="M 3 34.171875 C 2.835938 34.171875 2.703125 34.304688 2.703125 34.464844 L 2.703125 63.621094 C 2.703125 63.785156 2.835938 63.917969 3 63.917969 L 17.121094 63.917969 C 17.285156 63.917969 17.417969 63.785156 17.417969 63.621094 L 17.417969 34.464844 C 17.417969 34.304688 17.285156 34.171875 17.121094 34.171875 Z M 3 34.171875 "/><g clip-rule="nonzero" clip-path="url(#d4e60e6df9)"><path style=" stroke:none;fill-rule:nonzero;fill:#fbf0d4;fill-opacity:1;" d="M 3 31.835938 C 1.546875 31.835938 0.367188 33.015625 0.367188 34.464844 L 0.367188 63.621094 C 0.367188 65.070312 1.546875 66.25 3 66.25 L 17.121094 66.25 C 18.570312 66.25 19.75 65.070312 19.75 63.621094 L 19.75 34.464844 C 19.75 33.015625 18.570312 31.835938 17.121094 31.835938 Z M 17.414062 34.464844 L 17.414062 63.621094 C 17.414062 63.785156 17.285156 63.917969 17.121094 63.917969 L 3 63.917969 C 2.835938 63.917969 2.703125 63.785156 2.703125 63.621094 L 2.703125 34.464844 C 2.703125 34.304688 2.835938 34.171875 3 34.171875 L 17.121094 34.171875 C 17.285156 34.171875 17.414062 34.304688 17.414062 34.464844 Z M 17.414062 34.464844 "/></g><path style=" stroke:none;fill-rule:nonzero;fill:#fbf0d4;fill-opacity:1;" d="M 41.328125 17.25 L 27.207031 17.25 C 27.042969 17.25 26.910156 17.382812 26.910156 17.542969 L 26.910156 63.621094 C 26.910156 63.785156 27.042969 63.917969 27.207031 63.917969 L 41.328125 63.917969 C 41.492188 63.917969 41.625 63.785156 41.625 63.621094 L 41.625 17.542969 C 41.625 17.378906 41.492188 17.25 41.328125 17.25 Z M 41.328125 17.25 "/><g clip-rule="nonzero" clip-path="url(#38efea81a0)"><path style=" stroke:none;fill-rule:nonzero;fill:#fbf0d4;fill-opacity:1;" d="M 41.328125 14.914062 L 27.207031 14.914062 C 25.757812 14.914062 24.578125 16.09375 24.578125 17.542969 L 24.578125 63.621094 C 24.578125 65.070312 25.757812 66.25 27.207031 66.25 L 41.328125 66.25 C 42.78125 66.25 43.960938 65.070312 43.960938 63.621094 L 43.960938 17.542969 C 43.960938 16.09375 42.78125 14.914062 41.328125 14.914062 Z M 41.625 63.621094 C 41.625 63.785156 41.492188 63.917969 41.328125 63.917969 L 27.207031 63.917969 C 27.042969 63.917969 26.914062 63.785156 26.914062 63.621094 L 26.914062 17.542969 C 26.914062 17.378906 27.042969 17.25 27.207031 17.25 L 41.328125 17.25 C 41.492188 17.25 41.625 17.378906 41.625 17.542969 Z M 41.625 63.621094 "/></g><path style=" stroke:none;fill-rule:nonzero;fill:#fbf0d4;fill-opacity:1;" d="M 51.414062 63.917969 L 65.539062 63.917969 C 65.699219 63.917969 65.832031 63.785156 65.832031 63.621094 L 65.832031 2.628906 C 65.832031 2.46875 65.699219 2.335938 65.539062 2.335938 L 51.414062 2.335938 C 51.253906 2.335938 51.121094 2.46875 51.121094 2.628906 L 51.121094 63.621094 C 51.121094 63.785156 51.253906 63.917969 51.414062 63.917969 Z M 51.414062 63.917969 "/><g clip-rule="nonzero" clip-path="url(#e0dc837892)"><path style=" stroke:none;fill-rule:nonzero;fill:#fbf0d4;fill-opacity:1;" d="M 51.414062 66.25 L 65.539062 66.25 C 66.988281 66.25 68.167969 65.070312 68.167969 63.621094 L 68.167969 2.628906 C 68.167969 1.179688 66.988281 0 65.539062 0 L 51.414062 0 C 49.964844 0 48.785156 1.179688 48.785156 2.628906 L 48.785156 63.621094 C 48.785156 65.070312 49.964844 66.25 51.414062 66.25 Z M 51.121094 2.628906 C 51.121094 2.46875 51.253906 2.335938 51.414062 2.335938 L 65.539062 2.335938 C 65.703125 2.335938 65.832031 2.46875 65.832031 2.628906 L 65.832031 63.621094 C 65.832031 63.785156 65.703125 63.917969 65.539062 63.917969 L 51.414062 63.917969 C 51.253906 63.917969 51.121094 63.785156 51.121094 63.621094 Z M 51.121094 2.628906 "/></g></g></svg>