<svg xmlns="http://www.w3.org/2000/svg" xmlns:xlink="http://www.w3.org/1999/xlink" width="191" zoomAndPan="magnify" viewBox="0 0 143.25 138.750001" height="185" preserveAspectRatio="xMidYMid meet" version="1.2"><defs><clipPath id="9b86a3650d"><path d="M 21 22 L 42 22 L 42 43 L 21 43 Z M 21 22 "/></clipPath><clipPath id="96f573e9d0"><path d="M 41.285156 32.925781 L 31.789062 42.417969 L 21.082031 31.714844 L 30.578125 22.21875 Z M 41.285156 32.925781 "/></clipPath><clipPath id="02128700d8"><path d="M 21 22 L 42 22 L 42 43 L 21 43 Z M 21 22 "/></clipPath><clipPath id="0be05c605d"><path d="M 41.285156 32.925781 L 31.789062 42.421875 L 21.234375 31.871094 L 30.730469 22.375 Z M 41.285156 32.925781 "/></clipPath><clipPath id="d92d9cc89c"><path d="M 41.285156 32.925781 L 31.925781 42.28125 L 21.375 31.730469 L 30.730469 22.375 Z M 41.285156 32.925781 "/></clipPath><clipPath id="2d3f0f08cc"><path d="M 8 8 L 43 8 L 43 43 L 8 43 Z M 8 8 "/></clipPath><clipPath id="6276e66c0e"><path d="M 0.00390625 28.355469 L 28.128906 0.230469 L 42.191406 14.292969 L 14.066406 42.417969 Z M 0.00390625 28.355469 "/></clipPath><clipPath id="1c0c07762b"><path d="M 42.191406 14.292969 L 14.066406 42.417969 C 6.296875 34.652344 6.296875 22.0625 14.066406 14.292969 C 21.832031 6.527344 34.421875 6.527344 42.191406 14.292969 Z M 42.191406 14.292969 "/></clipPath><clipPath id="45ec575f6f"><path d="M 8 8 L 42 8 L 42 43 L 8 43 Z M 8 8 "/></clipPath><clipPath id="42f45a3ef7"><path d="M 0.00390625 28.355469 L 27.964844 0.394531 L 42.207031 14.640625 L 14.246094 42.601562 Z M 0.00390625 28.355469 "/></clipPath><clipPath id="7110983907"><path d="M 0.0078125 28.351562 L 27.960938 0.398438 L 41.9375 14.375 L 13.984375 42.328125 Z M 0.0078125 28.351562 "/></clipPath><clipPath id="e4d3d31ac7"><path d="M 41.9375 14.375 L 13.984375 42.328125 C 6.265625 34.609375 6.265625 22.09375 13.984375 14.375 C 21.703125 6.65625 34.21875 6.65625 41.9375 14.375 Z M 41.9375 14.375 "/></clipPath><clipPath id="e0ff41cc83"><path d="M 100 21 L 121 21 L 121 42 L 100 42 Z M 100 21 "/></clipPath><clipPath id="4d9676c315"><path d="M 109.640625 41.519531 L 100.144531 32.027344 L 110.851562 21.320312 L 120.347656 30.8125 Z M 109.640625 41.519531 "/></clipPath><clipPath id="7e57b22fc6"><path d="M 100 21 L 121 21 L 121 42 L 100 42 Z M 100 21 "/></clipPath><clipPath id="7d2c20a041"><path d="M 109.640625 41.519531 L 100.144531 32.023438 L 110.695312 21.472656 L 120.191406 30.96875 Z M 109.640625 41.519531 "/></clipPath><clipPath id="5b29ccfd8d"><path d="M 109.640625 41.519531 L 100.28125 32.164062 L 110.835938 21.613281 L 120.191406 30.96875 Z M 109.640625 41.519531 "/></clipPath><clipPath id="42af8dce4f"><path d="M 100 8 L 135 8 L 135 43 L 100 43 Z M 100 8 "/></clipPath><clipPath id="87085e4714"><path d="M 114.207031 0.238281 L 142.332031 28.363281 L 128.269531 42.425781 L 100.144531 14.300781 Z M 114.207031 0.238281 "/></clipPath><clipPath id="60d05e04da"><path d="M 128.269531 42.425781 L 100.144531 14.300781 C 107.910156 6.535156 120.503906 6.535156 128.269531 14.300781 C 136.035156 22.066406 136.035156 34.660156 128.269531 42.425781 Z M 128.269531 42.425781 "/></clipPath><clipPath id="7de3524b87"><path d="M 100 8 L 134 8 L 134 43 L 100 43 Z M 100 8 "/></clipPath><clipPath id="e71770559f"><path d="M 114.207031 0.238281 L 142.167969 28.199219 L 127.921875 42.445312 L 99.960938 14.484375 Z M 114.207031 0.238281 "/></clipPath><clipPath id="fd54db5b41"><path d="M 114.210938 0.242188 L 142.164062 28.195312 L 128.1875 42.171875 L 100.234375 14.21875 Z M 114.210938 0.242188 "/></clipPath><clipPath id="a6c874b0be"><path d="M 128.1875 42.171875 L 100.234375 14.21875 C 107.953125 6.5 120.46875 6.5 128.1875 14.21875 C 135.90625 21.9375 135.90625 34.453125 128.1875 42.171875 Z M 128.1875 42.171875 "/></clipPath><clipPath id="8d23d46127"><path d="M 26 110 L 48 110 L 48 135 L 26 135 Z M 26 110 "/></clipPath><clipPath id="54a0f40dc2"><path d="M 36.109375 107.269531 L 50.335938 115.519531 L 37.511719 137.632812 L 23.285156 129.382812 Z M 36.109375 107.269531 "/></clipPath><clipPath id="39e4b11152"><path d="M 43.222656 111.394531 C 47.152344 113.671875 48.488281 118.703125 46.210938 122.628906 L 41.644531 130.503906 C 39.367188 134.433594 34.335938 135.769531 30.40625 133.492188 C 26.480469 131.214844 25.140625 126.183594 27.417969 122.257812 L 31.988281 114.382812 C 34.265625 110.453125 39.296875 109.117188 43.222656 111.394531 Z M 43.222656 111.394531 "/></clipPath><clipPath id="7261ad9a69"><path d="M 26 110 L 48 110 L 48 135 L 26 135 Z M 26 110 "/></clipPath><clipPath id="d97b1b2a0a"><path d="M 36.109375 107.269531 L 50.308594 115.503906 L 37.585938 137.449219 L 23.386719 129.214844 Z M 36.109375 107.269531 "/></clipPath><clipPath id="07069544f3"><path d="M 36.109375 107.269531 L 51.488281 116.191406 L 38.109375 139.257812 L 22.730469 130.339844 Z M 36.109375 107.269531 "/></clipPath><clipPath id="261348241c"><path d="M 43.171875 111.367188 C 47.070312 113.628906 48.398438 118.621094 46.136719 122.523438 L 41.601562 130.339844 C 39.339844 134.238281 34.347656 135.566406 30.445312 133.304688 C 26.546875 131.046875 25.21875 126.050781 27.480469 122.152344 L 32.015625 114.332031 C 34.277344 110.433594 39.269531 109.105469 43.171875 111.367188 Z M 43.171875 111.367188 "/></clipPath><clipPath id="b2d6f26283"><path d="M 98 110 L 120 110 L 120 135 L 98 135 Z M 98 110 "/></clipPath><clipPath id="4f86768fd8"><path d="M 95.203125 115.386719 L 109.539062 107.265625 L 122.128906 129.5 L 107.792969 137.617188 Z M 95.203125 115.386719 "/></clipPath><clipPath id="39688f36f4"><path d="M 102.371094 111.324219 C 104.269531 110.25 106.523438 109.972656 108.628906 110.554688 C 110.734375 111.140625 112.519531 112.535156 113.597656 114.4375 L 118.066406 122.328125 C 119.144531 124.230469 119.421875 126.480469 118.835938 128.585938 C 118.253906 130.691406 116.859375 132.480469 114.957031 133.554688 C 113.054688 134.632812 110.804688 134.910156 108.699219 134.328125 C 106.59375 133.742188 104.808594 132.347656 103.730469 130.445312 L 99.261719 122.554688 C 98.183594 120.652344 97.90625 118.402344 98.488281 116.296875 C 99.074219 114.191406 100.46875 112.402344 102.371094 111.324219 Z M 102.371094 111.324219 "/></clipPath><clipPath id="289408cbe2"><path d="M 98 110 L 119 110 L 119 135 L 98 135 Z M 98 110 "/></clipPath><clipPath id="393e9422ee"><path d="M 95.203125 115.386719 L 109.484375 107.296875 L 121.984375 129.371094 L 107.699219 137.460938 Z M 95.203125 115.386719 "/></clipPath><clipPath id="237ea28dde"><path d="M 95.203125 115.386719 L 110.671875 106.625 L 123.816406 129.832031 L 108.34375 138.59375 Z M 95.203125 115.386719 "/></clipPath><clipPath id="75ba7a6b17"><path d="M 102.320312 111.355469 C 104.207031 110.285156 106.441406 110.011719 108.535156 110.589844 C 110.625 111.167969 112.398438 112.554688 113.46875 114.441406 L 117.90625 122.28125 C 118.976562 124.167969 119.25 126.402344 118.671875 128.492188 C 118.09375 130.585938 116.707031 132.359375 114.820312 133.429688 C 112.929688 134.496094 110.695312 134.773438 108.605469 134.195312 C 106.515625 133.613281 104.738281 132.230469 103.671875 130.339844 L 99.230469 122.503906 C 98.164062 120.617188 97.886719 118.378906 98.46875 116.289062 C 99.046875 114.199219 100.433594 112.425781 102.320312 111.355469 Z M 102.320312 111.355469 "/></clipPath><clipPath id="7183d4d2e8"><path d="M 14.84375 16.675781 L 128.582031 16.675781 L 128.582031 130.414062 L 14.84375 130.414062 Z M 14.84375 16.675781 "/></clipPath><clipPath id="631aedd393"><path d="M 71.714844 16.675781 C 40.304688 16.675781 14.84375 42.136719 14.84375 73.546875 C 14.84375 104.953125 40.304688 130.414062 71.714844 130.414062 C 103.121094 130.414062 128.582031 104.953125 128.582031 73.546875 C 128.582031 42.136719 103.121094 16.675781 71.714844 16.675781 Z M 71.714844 16.675781 "/></clipPath><clipPath id="f348675f33"><path d="M 14.84375 16.675781 L 128.25 16.675781 L 128.25 130.082031 L 14.84375 130.082031 Z M 14.84375 16.675781 "/></clipPath><clipPath id="6f899b6595"><path d="M 71.546875 16.675781 C 40.230469 16.675781 14.84375 42.0625 14.84375 73.378906 C 14.84375 104.695312 40.230469 130.082031 71.546875 130.082031 C 102.863281 130.082031 128.25 104.695312 128.25 73.378906 C 128.25 42.0625 102.863281 16.675781 71.546875 16.675781 Z M 71.546875 16.675781 "/></clipPath><clipPath id="eedbf7f2fa"><path d="M 25.589844 27.421875 L 117.835938 27.421875 L 117.835938 119.667969 L 25.589844 119.667969 Z M 25.589844 27.421875 "/></clipPath><clipPath id="f8bba2bfd7"><path d="M 71.714844 27.421875 C 46.238281 27.421875 25.589844 48.074219 25.589844 73.546875 C 25.589844 99.019531 46.238281 119.667969 71.714844 119.667969 C 97.1875 119.667969 117.835938 99.019531 117.835938 73.546875 C 117.835938 48.074219 97.1875 27.421875 71.714844 27.421875 Z M 71.714844 27.421875 "/></clipPath><clipPath id="caecb89dd8"><path d="M 25.589844 27.421875 L 117.824219 27.421875 L 117.824219 119.65625 L 25.589844 119.65625 Z M 25.589844 27.421875 "/></clipPath><clipPath id="6cc40cec4a"><path d="M 71.707031 27.421875 C 46.238281 27.421875 25.589844 48.070312 25.589844 73.539062 C 25.589844 99.011719 46.238281 119.65625 71.707031 119.65625 C 97.179688 119.65625 117.824219 99.011719 117.824219 73.539062 C 117.824219 48.070312 97.179688 27.421875 71.707031 27.421875 Z M 71.707031 27.421875 "/></clipPath><clipPath id="5471c10dfd"><path d="M 67.117188 67.800781 L 76.832031 67.800781 L 76.832031 77.515625 L 67.117188 77.515625 Z M 67.117188 67.800781 "/></clipPath><clipPath id="b81dead89b"><path d="M 71.972656 67.800781 C 69.292969 67.800781 67.117188 69.976562 67.117188 72.65625 C 67.117188 75.339844 69.292969 77.515625 71.972656 77.515625 C 74.65625 77.515625 76.832031 75.339844 76.832031 72.65625 C 76.832031 69.976562 74.65625 67.800781 71.972656 67.800781 Z M 71.972656 67.800781 "/></clipPath><clipPath id="ca7bb4727e"><path d="M 67.117188 67.800781 L 76.816406 67.800781 L 76.816406 77.5 L 67.117188 77.5 Z M 67.117188 67.800781 "/></clipPath><clipPath id="fcfb0339f9"><path d="M 71.964844 67.800781 C 69.289062 67.800781 67.117188 69.972656 67.117188 72.648438 C 67.117188 75.328125 69.289062 77.5 71.964844 77.5 C 74.644531 77.5 76.816406 75.328125 76.816406 72.648438 C 76.816406 69.972656 74.644531 67.800781 71.964844 67.800781 Z M 71.964844 67.800781 "/></clipPath></defs><g id="cce75cb375"><g clip-rule="nonzero" clip-path="url(#9b86a3650d)"><g clip-rule="nonzero" clip-path="url(#96f573e9d0)"><path style=" stroke:none;fill-rule:nonzero;fill:#eee3cd;fill-opacity:1;" d="M 41.285156 32.925781 L 31.789062 42.417969 L 21.074219 31.703125 L 30.566406 22.207031 Z M 41.285156 32.925781 "/></g></g><g clip-rule="nonzero" clip-path="url(#02128700d8)"><g clip-rule="nonzero" clip-path="url(#0be05c605d)"><g clip-rule="nonzero" clip-path="url(#d92d9cc89c)"><path style="fill:none;stroke-width:4;stroke-linecap:butt;stroke-linejoin:miter;stroke:#423541;stroke-opacity:1;stroke-miterlimit:4;" d="M -0.0016322 -0.00164794 L 17.984698 0.00210626 L 17.984698 20.282247 L 0.00212199 20.282247 Z M -0.0016322 -0.00164794 " transform="matrix(-0.520252,0.520252,-0.520252,-0.520252,41.28345,32.925773)"/></g></g></g><g clip-rule="nonzero" clip-path="url(#2d3f0f08cc)"><g clip-rule="nonzero" clip-path="url(#6276e66c0e)"><g clip-rule="nonzero" clip-path="url(#1c0c07762b)"><path style=" stroke:none;fill-rule:nonzero;fill:#835055;fill-opacity:1;" d="M 0.00390625 28.355469 L 28.128906 0.230469 L 42.191406 14.292969 L 14.066406 42.417969 Z M 0.00390625 28.355469 "/></g></g></g><g clip-rule="nonzero" clip-path="url(#45ec575f6f)"><g clip-rule="nonzero" clip-path="url(#42f45a3ef7)"><g clip-rule="nonzero" clip-path="url(#7110983907)"><g clip-rule="nonzero" clip-path="url(#e4d3d31ac7)"><path style="fill:none;stroke-width:4;stroke-linecap:butt;stroke-linejoin:miter;stroke:#423541;stroke-opacity:1;stroke-miterlimit:4;" d="M 53.283962 26.64111 L 0.00228738 26.64111 C 0.00228738 11.928339 11.930354 0.000272764 26.643125 0.000272764 C 41.355896 0.000272764 53.283962 11.928339 53.283962 26.64111 Z M 53.283962 26.64111 " transform="matrix(0.524629,-0.524629,0.524629,0.524629,0.00646937,28.352619)"/></g></g></g></g><g clip-rule="nonzero" clip-path="url(#e0ff41cc83)"><g clip-rule="nonzero" clip-path="url(#4d9676c315)"><path style=" stroke:none;fill-rule:nonzero;fill:#eee3cd;fill-opacity:1;" d="M 109.640625 41.519531 L 100.144531 32.027344 L 110.863281 21.308594 L 120.355469 30.800781 Z M 109.640625 41.519531 "/></g></g><g clip-rule="nonzero" clip-path="url(#7e57b22fc6)"><g clip-rule="nonzero" clip-path="url(#7d2c20a041)"><g clip-rule="nonzero" clip-path="url(#5b29ccfd8d)"><path style="fill:none;stroke-width:4;stroke-linecap:butt;stroke-linejoin:miter;stroke:#423541;stroke-opacity:1;stroke-miterlimit:4;" d="M -0.00104977 0.00149161 L 17.98528 -0.00226258 L 17.981526 20.281633 L -0.00104977 20.281633 Z M -0.00104977 0.00149161 " transform="matrix(-0.520252,-0.520252,0.520252,-0.520252,109.639303,41.519761)"/></g></g></g><g clip-rule="nonzero" clip-path="url(#42af8dce4f)"><g clip-rule="nonzero" clip-path="url(#87085e4714)"><g clip-rule="nonzero" clip-path="url(#60d05e04da)"><path style=" stroke:none;fill-rule:nonzero;fill:#835055;fill-opacity:1;" d="M 114.207031 0.238281 L 142.332031 28.363281 L 128.269531 42.425781 L 100.144531 14.300781 Z M 114.207031 0.238281 "/></g></g></g><g clip-rule="nonzero" clip-path="url(#7de3524b87)"><g clip-rule="nonzero" clip-path="url(#e71770559f)"><g clip-rule="nonzero" clip-path="url(#fd54db5b41)"><g clip-rule="nonzero" clip-path="url(#a6c874b0be)"><path style="fill:none;stroke-width:4;stroke-linecap:butt;stroke-linejoin:miter;stroke:#423541;stroke-opacity:1;stroke-miterlimit:4;" d="M 53.281211 26.639573 L -0.000463474 26.639573 C -0.000463474 11.926802 11.927603 -0.00126387 26.640374 -0.00126387 C 41.353145 -0.00126387 53.281211 11.926802 53.281211 26.639573 Z M 53.281211 26.639573 " transform="matrix(0.524629,0.524629,-0.524629,0.524629,114.210518,0.243094)"/></g></g></g></g><g clip-rule="nonzero" clip-path="url(#8d23d46127)"><g clip-rule="nonzero" clip-path="url(#54a0f40dc2)"><g clip-rule="nonzero" clip-path="url(#39e4b11152)"><path style=" stroke:none;fill-rule:nonzero;fill:#eee3cd;fill-opacity:1;" d="M 36.109375 107.269531 L 50.335938 115.519531 L 37.511719 137.632812 L 23.285156 129.382812 Z M 36.109375 107.269531 "/></g></g></g><g clip-rule="nonzero" clip-path="url(#7261ad9a69)"><g clip-rule="nonzero" clip-path="url(#d97b1b2a0a)"><g clip-rule="nonzero" clip-path="url(#07069544f3)"><g clip-rule="nonzero" clip-path="url(#261348241c)"><path style="fill:none;stroke-width:4;stroke-linecap:butt;stroke-linejoin:miter;stroke:#423541;stroke-opacity:1;stroke-miterlimit:4;" d="M 11.017695 0.000641457 C 17.100152 0.00171768 22.030519 4.93064 22.032087 11.017658 L 22.029477 23.213308 C 22.028401 29.295765 17.099479 34.226132 11.012461 34.227701 C 4.932648 34.231185 -0.000363135 29.297702 0.000713089 23.215245 L 0.000678662 11.015034 C 0.00175489 4.932577 4.930677 0.00220988 11.017695 0.000641457 Z M 11.017695 0.000641457 " transform="matrix(0.640997,0.37173,-0.37173,0.640997,36.109803,107.271174)"/></g></g></g></g><g clip-rule="nonzero" clip-path="url(#b2d6f26283)"><g clip-rule="nonzero" clip-path="url(#4f86768fd8)"><g clip-rule="nonzero" clip-path="url(#39688f36f4)"><path style=" stroke:none;fill-rule:nonzero;fill:#eee3cd;fill-opacity:1;" d="M 95.203125 115.386719 L 109.539062 107.265625 L 122.128906 129.5 L 107.792969 137.617188 Z M 95.203125 115.386719 "/></g></g></g><g clip-rule="nonzero" clip-path="url(#289408cbe2)"><g clip-rule="nonzero" clip-path="url(#393e9422ee)"><g clip-rule="nonzero" clip-path="url(#237ea28dde)"><g clip-rule="nonzero" clip-path="url(#75ba7a6b17)"><path style="fill:none;stroke-width:4;stroke-linecap:butt;stroke-linejoin:miter;stroke:#423541;stroke-opacity:1;stroke-miterlimit:4;" d="M 11.039638 0.000901668 C 13.967041 -0.00142096 16.772821 1.163252 18.847196 3.234452 C 20.916984 5.303054 22.07751 8.110834 22.079832 11.038237 L 22.077802 23.195802 C 22.080124 26.123205 20.915451 28.928985 18.846849 30.998773 C 16.775649 33.073148 13.967869 34.233674 11.040466 34.235996 C 8.111073 34.231134 5.302695 33.071049 3.232907 31.002446 C 1.165717 28.929257 -0.00199364 26.123466 0.00286858 23.194073 L -0.00228543 11.038499 C -0.0000207241 8.113693 1.162662 5.300728 3.235852 3.233538 C 5.304454 1.16375 8.112234 0.0032243 11.039638 0.000901668 Z M 11.039638 0.000901668 " transform="matrix(0.644792,-0.365107,0.365107,0.644792,95.201711,115.385534)"/></g></g></g></g><g clip-rule="nonzero" clip-path="url(#7183d4d2e8)"><g clip-rule="nonzero" clip-path="url(#631aedd393)"><path style=" stroke:none;fill-rule:nonzero;fill:#835055;fill-opacity:1;" d="M 14.84375 16.675781 L 128.582031 16.675781 L 128.582031 130.414062 L 14.84375 130.414062 Z M 14.84375 16.675781 "/></g></g><g clip-rule="nonzero" clip-path="url(#f348675f33)"><g clip-rule="nonzero" clip-path="url(#6f899b6595)"><path style="fill:none;stroke-width:4;stroke-linecap:butt;stroke-linejoin:miter;stroke:#423541;stroke-opacity:1;stroke-miterlimit:4;" d="M 76.218856 -0.000337213 C 34.12422 -0.000337213 0.000103484 34.123779 0.000103484 76.218415 C 0.000103484 118.313051 34.12422 152.437167 76.218856 152.437167 C 118.313492 152.437167 152.437608 118.313051 152.437608 76.218415 C 152.437608 34.123779 118.313492 -0.000337213 76.218856 -0.000337213 Z M 76.218856 -0.000337213 " transform="matrix(0.743952,0,0,0.743952,14.843673,16.676032)"/></g></g><g clip-rule="nonzero" clip-path="url(#eedbf7f2fa)"><g clip-rule="nonzero" clip-path="url(#f8bba2bfd7)"><path style=" stroke:none;fill-rule:nonzero;fill:#eee3cd;fill-opacity:1;" d="M 25.589844 27.421875 L 117.835938 27.421875 L 117.835938 119.667969 L 25.589844 119.667969 Z M 25.589844 27.421875 "/></g></g><g clip-rule="nonzero" clip-path="url(#caecb89dd8)"><g clip-rule="nonzero" clip-path="url(#6cc40cec4a)"><path style="fill:none;stroke-width:4;stroke-linecap:butt;stroke-linejoin:miter;stroke:#423541;stroke-opacity:1;stroke-miterlimit:4;" d="M 61.811477 -0.000485484 C 27.67535 -0.000485484 -0.0000434915 27.674908 -0.0000434915 61.811035 C -0.0000434915 95.952398 27.67535 123.622556 61.811477 123.622556 C 95.95284 123.622556 123.622998 95.952398 123.622998 61.811035 C 123.622998 27.674908 95.95284 -0.000485484 61.811477 -0.000485484 Z M 61.811477 -0.000485484 " transform="matrix(0.746094,0,0,0.746094,25.589876,27.422237)"/></g></g><path style="fill:none;stroke-width:2;stroke-linecap:round;stroke-linejoin:miter;stroke:#423541;stroke-opacity:1;stroke-miterlimit:4;" d="M 0.998082 0.997581 L 26.830543 0.997581 " transform="matrix(0,-0.746094,0.746094,0,70.966649,70.717319)"/><path style="fill:none;stroke-width:2;stroke-linecap:round;stroke-linejoin:miter;stroke:#423541;stroke-opacity:1;stroke-miterlimit:4;" d="M 0.999553 1.002023 L 41.869532 0.998237 " transform="matrix(0.552198,-0.501731,0.501731,0.552198,46.910147,95.127879)"/><g clip-rule="nonzero" clip-path="url(#5471c10dfd)"><g clip-rule="nonzero" clip-path="url(#b81dead89b)"><path style=" stroke:none;fill-rule:nonzero;fill:#835055;fill-opacity:1;" d="M 67.117188 67.800781 L 76.832031 67.800781 L 76.832031 77.515625 L 67.117188 77.515625 Z M 67.117188 67.800781 "/></g></g><g clip-rule="nonzero" clip-path="url(#ca7bb4727e)"><g clip-rule="nonzero" clip-path="url(#fcfb0339f9)"><path style="fill:none;stroke-width:4;stroke-linecap:butt;stroke-linejoin:miter;stroke:#423541;stroke-opacity:1;stroke-miterlimit:4;" d="M 6.50591 0.000828454 C 2.915212 0.000828454 0.000718194 2.915322 0.000718194 6.50602 C 0.000718194 10.10196 2.915212 13.016454 6.50591 13.016454 C 10.10185 13.016454 13.016344 10.10196 13.016344 6.50602 C 13.016344 2.915322 10.10185 0.000828454 6.50591 0.000828454 Z M 6.50591 0.000828454 " transform="matrix(0.745198,0,0,0.745198,67.116652,67.800164)"/></g></g><path style="fill:none;stroke-width:2;stroke-linecap:round;stroke-linejoin:miter;stroke:#423541;stroke-opacity:1;stroke-miterlimit:4;" d="M 1.001496 1.001813 L 3.959611 1.001813 " transform="matrix(0.746094,0,0,0.746094,108.662947,72.799429)"/><path style="fill:none;stroke-width:2;stroke-linecap:round;stroke-linejoin:miter;stroke:#423541;stroke-opacity:1;stroke-miterlimit:4;" d="M 0.999398 0.998647 L 4.774267 0.998647 " transform="matrix(0,-0.746094,0.746094,0,71.223665,114.862832)"/><path style="fill:none;stroke-width:2;stroke-linecap:round;stroke-linejoin:miter;stroke:#423541;stroke-opacity:1;stroke-miterlimit:4;" d="M 0.998784 1.001926 L 4.773654 1.001926 " transform="matrix(0,-0.746094,0.746094,0,70.963406,35.733468)"/><path style="fill:none;stroke-width:2;stroke-linecap:round;stroke-linejoin:miter;stroke:#423541;stroke-opacity:1;stroke-miterlimit:4;" d="M 1.002282 0.999081 L 3.960397 0.999081 " transform="matrix(0.746094,0,0,0.746094,31.00611,71.910842)"/></g></svg>