<svg xmlns="http://www.w3.org/2000/svg" xmlns:xlink="http://www.w3.org/1999/xlink" width="90" zoomAndPan="magnify" viewBox="0 0 67.5 67.499996" height="90" preserveAspectRatio="xMidYMid meet" version="1.2"><g id="d4d6f480ee"><path style=" stroke:none;fill-rule:nonzero;fill:#fbf0d4;fill-opacity:1;" d="M 39.277344 65.914062 L 26.71875 65.914062 C 26.292969 65.933594 25.878906 65.871094 25.476562 65.730469 C 25.078125 65.585938 24.71875 65.371094 24.402344 65.085938 C 24.085938 64.800781 23.835938 64.464844 23.652344 64.082031 C 23.46875 63.695312 23.367188 63.292969 23.34375 62.867188 L 22.207031 55.875 C 20.777344 55.289062 19.441406 54.535156 18.203125 53.609375 L 11.191406 56.53125 C 10.429688 56.871094 9.652344 56.898438 8.867188 56.617188 C 8.03125 56.347656 7.410156 55.824219 7.003906 55.046875 L 0.773438 44.234375 C 0.566406 43.886719 0.429688 43.515625 0.363281 43.121094 C 0.292969 42.722656 0.300781 42.324219 0.378906 41.929688 C 0.457031 41.535156 0.605469 41.167969 0.820312 40.828125 C 1.035156 40.488281 1.304688 40.195312 1.628906 39.957031 L 7.277344 35.433594 C 7.175781 34.667969 7.132812 33.902344 7.152344 33.128906 C 7.164062 32.535156 7.230469 31.945312 7.339844 31.359375 L 7.414062 30.929688 L 1.523438 26.226562 C 1.320312 26.066406 1.167969 25.871094 1.054688 25.640625 C 0.707031 25.117188 0.503906 24.546875 0.441406 23.921875 C 0.382812 23.296875 0.472656 22.695312 0.710938 22.117188 L 7.039062 10.808594 C 7.121094 10.671875 7.214844 10.546875 7.328125 10.433594 C 7.550781 10.136719 7.820312 9.886719 8.132812 9.679688 C 8.441406 9.476562 8.777344 9.328125 9.140625 9.238281 C 9.503906 9.148438 9.867188 9.121094 10.238281 9.160156 C 10.609375 9.195312 10.964844 9.292969 11.300781 9.449219 L 18.203125 12.324219 C 19.292969 11.554688 20.445312 10.894531 21.492188 10.300781 L 22.136719 9.933594 L 23.023438 3.167969 C 23.050781 2.976562 23.109375 2.792969 23.195312 2.621094 C 23.476562 1.976562 23.90625 1.449219 24.480469 1.042969 C 25.050781 0.636719 25.6875 0.402344 26.390625 0.34375 L 38.945312 0.34375 C 39.371094 0.324219 39.785156 0.386719 40.183594 0.53125 C 40.585938 0.671875 40.945312 0.886719 41.261719 1.171875 C 41.578125 1.457031 41.828125 1.792969 42.011719 2.175781 C 42.195312 2.5625 42.300781 2.96875 42.324219 3.390625 L 43.457031 10.382812 C 44.886719 10.96875 46.222656 11.726562 47.460938 12.648438 L 54.46875 9.726562 C 55.234375 9.394531 56.011719 9.367188 56.796875 9.640625 C 57.632812 9.910156 58.253906 10.433594 58.660156 11.210938 L 64.878906 22.023438 C 65.085938 22.371094 65.222656 22.742188 65.289062 23.140625 C 65.359375 23.535156 65.351562 23.933594 65.273438 24.328125 C 65.195312 24.722656 65.046875 25.089844 64.832031 25.433594 C 64.617188 25.773438 64.347656 26.0625 64.023438 26.304688 L 58.371094 30.824219 C 58.472656 31.589844 58.515625 32.359375 58.496094 33.128906 C 58.484375 33.726562 58.421875 34.316406 58.3125 34.898438 C 58.289062 35.035156 58.261719 35.167969 58.242188 35.304688 L 64.441406 40.03125 C 64.757812 40.261719 65.023438 40.539062 65.234375 40.871094 C 65.445312 41.199219 65.589844 41.554688 65.667969 41.941406 C 65.742188 42.324219 65.746094 42.707031 65.679688 43.09375 C 65.609375 43.480469 65.472656 43.839844 65.269531 44.171875 L 58.941406 55.136719 C 58.535156 55.871094 57.929688 56.363281 57.128906 56.617188 C 56.304688 56.902344 55.5 56.855469 54.710938 56.484375 L 47.710938 53.566406 L 47.136719 53.941406 C 46.082031 54.671875 44.972656 55.308594 43.8125 55.855469 L 42.632812 63.152344 C 42.601562 63.328125 42.546875 63.496094 42.472656 63.652344 C 42.183594 64.292969 41.753906 64.816406 41.183594 65.21875 C 40.609375 65.625 39.972656 65.855469 39.277344 65.914062 Z M 26.75 62.464844 L 39.246094 62.464844 C 39.171875 62.464844 39.207031 62.386719 39.273438 62.285156 L 40.542969 54.351562 C 40.59375 54.03125 40.722656 53.75 40.929688 53.507812 C 41.140625 53.261719 41.398438 53.089844 41.703125 52.988281 C 42.957031 52.492188 44.136719 51.855469 45.230469 51.066406 C 45.707031 50.757812 46.179688 50.449219 46.652344 50.167969 C 47.148438 49.867188 47.664062 49.832031 48.199219 50.054688 L 56.136719 53.359375 L 62.191406 42.613281 L 55.414062 37.476562 C 54.953125 37.132812 54.722656 36.671875 54.722656 36.097656 C 54.738281 35.503906 54.800781 34.910156 54.914062 34.328125 C 54.992188 33.929688 55.039062 33.527344 55.054688 33.121094 C 55.101562 32.304688 55.019531 31.5 54.8125 30.707031 C 54.699219 30.363281 54.691406 30.019531 54.796875 29.671875 C 54.898438 29.328125 55.089844 29.042969 55.371094 28.816406 L 61.796875 23.675781 L 55.621094 12.84375 L 47.867188 16.21875 C 47.578125 16.339844 47.277344 16.378906 46.964844 16.335938 C 46.652344 16.292969 46.371094 16.171875 46.125 15.976562 C 44.707031 14.785156 43.121094 13.890625 41.371094 13.285156 C 41.066406 13.183594 40.808594 13.011719 40.601562 12.765625 C 40.390625 12.523438 40.261719 12.242188 40.210938 11.921875 L 38.914062 3.796875 L 26.425781 3.796875 C 26.488281 3.796875 26.457031 3.863281 26.402344 3.953125 L 25.457031 11.199219 C 25.386719 11.75 25.113281 12.171875 24.636719 12.457031 C 24.179688 12.730469 23.699219 13.003906 23.207031 13.28125 C 21.925781 13.972656 20.699219 14.753906 19.535156 15.628906 C 19.292969 15.824219 19.015625 15.941406 18.707031 15.984375 C 18.398438 16.03125 18.097656 15.992188 17.8125 15.875 L 10.007812 12.648438 L 9.914062 12.722656 L 3.828125 23.640625 L 10.289062 28.816406 C 10.71875 29.160156 10.933594 29.609375 10.933594 30.160156 C 10.917969 30.757812 10.855469 31.347656 10.742188 31.933594 C 10.511719 33.152344 10.542969 34.363281 10.847656 35.566406 C 10.960938 35.910156 10.964844 36.253906 10.863281 36.597656 C 10.761719 36.945312 10.570312 37.230469 10.289062 37.457031 L 3.859375 42.597656 L 10.042969 53.414062 L 17.792969 50.039062 C 18.082031 49.921875 18.378906 49.886719 18.6875 49.929688 C 18.996094 49.976562 19.273438 50.09375 19.519531 50.285156 C 20.9375 51.472656 22.523438 52.367188 24.273438 52.972656 C 24.578125 53.074219 24.835938 53.246094 25.042969 53.492188 C 25.253906 53.738281 25.382812 54.019531 25.433594 54.335938 Z M 62.371094 42.757812 C 62.445312 42.835938 62.527344 42.898438 62.625 42.949219 Z M 62.371094 42.757812 "/><path style=" stroke:none;fill-rule:nonzero;fill:#fbf0d4;fill-opacity:1;" d="M 33 48.808594 C 31.96875 48.808594 30.949219 48.707031 29.941406 48.507812 C 28.929688 48.304688 27.949219 48.007812 27 47.613281 C 26.046875 47.21875 25.144531 46.738281 24.289062 46.164062 C 23.433594 45.59375 22.640625 44.945312 21.914062 44.214844 C 21.183594 43.488281 20.535156 42.695312 19.960938 41.839844 C 19.390625 40.984375 18.90625 40.082031 18.515625 39.128906 C 18.121094 38.179688 17.824219 37.199219 17.621094 36.1875 C 17.421875 35.179688 17.320312 34.160156 17.320312 33.128906 C 17.320312 32.101562 17.421875 31.082031 17.621094 30.070312 C 17.824219 29.0625 18.121094 28.082031 18.515625 27.128906 C 18.90625 26.179688 19.390625 25.273438 19.960938 24.417969 C 20.535156 23.5625 21.183594 22.773438 21.914062 22.042969 C 22.640625 21.316406 23.433594 20.664062 24.289062 20.09375 C 25.144531 19.523438 26.046875 19.039062 27 18.644531 C 27.949219 18.25 28.929688 17.953125 29.941406 17.753906 C 30.949219 17.550781 31.96875 17.453125 33 17.453125 C 34.027344 17.453125 35.046875 17.550781 36.058594 17.753906 C 37.066406 17.953125 38.046875 18.25 39 18.644531 C 39.949219 19.039062 40.851562 19.523438 41.707031 20.09375 C 42.566406 20.664062 43.355469 21.316406 44.085938 22.042969 C 44.8125 22.773438 45.460938 23.5625 46.035156 24.417969 C 46.605469 25.273438 47.089844 26.179688 47.484375 27.128906 C 47.875 28.082031 48.175781 29.0625 48.375 30.070312 C 48.574219 31.082031 48.675781 32.101562 48.675781 33.128906 C 48.675781 34.160156 48.574219 35.179688 48.371094 36.1875 C 48.171875 37.195312 47.871094 38.175781 47.476562 39.125 C 47.082031 40.078125 46.601562 40.980469 46.027344 41.835938 C 45.457031 42.691406 44.808594 43.484375 44.078125 44.210938 C 43.351562 44.9375 42.558594 45.589844 41.703125 46.160156 C 40.847656 46.730469 39.945312 47.214844 38.996094 47.609375 C 38.042969 48.003906 37.066406 48.300781 36.054688 48.503906 C 35.046875 48.703125 34.027344 48.804688 33 48.808594 Z M 33 20.902344 C 32.195312 20.902344 31.402344 20.980469 30.613281 21.136719 C 29.824219 21.292969 29.0625 21.527344 28.320312 21.832031 C 27.578125 22.140625 26.875 22.515625 26.207031 22.964844 C 25.539062 23.410156 24.921875 23.917969 24.351562 24.484375 C 23.785156 25.050781 23.277344 25.667969 22.832031 26.335938 C 22.386719 27.003906 22.007812 27.707031 21.703125 28.449219 C 21.394531 29.191406 21.164062 29.957031 21.007812 30.746094 C 20.851562 31.53125 20.773438 32.328125 20.773438 33.128906 C 20.773438 33.933594 20.851562 34.726562 21.007812 35.515625 C 21.164062 36.300781 21.394531 37.066406 21.703125 37.808594 C 22.007812 38.550781 22.386719 39.253906 22.832031 39.921875 C 23.277344 40.589844 23.785156 41.207031 24.351562 41.773438 C 24.921875 42.34375 25.539062 42.851562 26.207031 43.296875 C 26.875 43.742188 27.578125 44.117188 28.320312 44.425781 C 29.0625 44.734375 29.824219 44.964844 30.613281 45.121094 C 31.402344 45.277344 32.195312 45.355469 33 45.355469 C 33.800781 45.355469 34.597656 45.277344 35.382812 45.121094 C 36.171875 44.964844 36.9375 44.734375 37.675781 44.425781 C 38.417969 44.117188 39.125 43.742188 39.792969 43.296875 C 40.457031 42.851562 41.078125 42.34375 41.644531 41.773438 C 42.210938 41.207031 42.71875 40.589844 43.164062 39.921875 C 43.609375 39.253906 43.988281 38.550781 44.292969 37.808594 C 44.601562 37.066406 44.832031 36.300781 44.992188 35.515625 C 45.148438 34.726562 45.226562 33.933594 45.226562 33.128906 C 45.222656 32.328125 45.144531 31.53125 44.988281 30.746094 C 44.832031 29.957031 44.597656 29.195312 44.289062 28.453125 C 43.984375 27.710938 43.605469 27.007812 43.160156 26.339844 C 42.714844 25.671875 42.207031 25.054688 41.640625 24.488281 C 41.074219 23.921875 40.457031 23.414062 39.789062 22.96875 C 39.121094 22.519531 38.417969 22.144531 37.675781 21.835938 C 36.933594 21.53125 36.167969 21.296875 35.382812 21.140625 C 34.597656 20.984375 33.800781 20.902344 33 20.902344 Z M 33 20.902344 "/></g></svg>