<svg xmlns="http://www.w3.org/2000/svg" xmlns:xlink="http://www.w3.org/1999/xlink" width="24" zoomAndPan="magnify" viewBox="0 0 18 54" height="72" preserveAspectRatio="xMidYMid meet" version="1.2"><defs><clipPath id="1c2644c664"><path d="M 0.164062 19 L 13.417969 19 L 13.417969 33 L 0.164062 33 Z M 0.164062 19 "/></clipPath><clipPath id="abeb42e443"><path d="M 0.164062 0 L 13.417969 0 L 13.417969 14 L 0.164062 14 Z M 0.164062 0 "/></clipPath><clipPath id="2588032eda"><path d="M 0.164062 39 L 13.417969 39 L 13.417969 53 L 0.164062 53 Z M 0.164062 39 "/></clipPath></defs><g id="e1af5a441f"><g clip-rule="nonzero" clip-path="url(#1c2644c664)"><path style=" stroke:none;fill-rule:nonzero;fill:#fbf0d4;fill-opacity:1;" d="M 13.324219 26.332031 C 13.324219 26.761719 13.285156 27.191406 13.199219 27.613281 C 13.117188 28.039062 12.992188 28.449219 12.824219 28.847656 C 12.660156 29.25 12.457031 29.628906 12.21875 29.988281 C 11.976562 30.347656 11.703125 30.679688 11.398438 30.984375 C 11.09375 31.289062 10.761719 31.5625 10.402344 31.804688 C 10.042969 32.042969 9.664062 32.246094 9.261719 32.410156 C 8.863281 32.578125 8.453125 32.703125 8.027344 32.785156 C 7.605469 32.871094 7.175781 32.910156 6.746094 32.910156 C 6.3125 32.910156 5.886719 32.871094 5.460938 32.785156 C 5.039062 32.703125 4.625 32.578125 4.226562 32.410156 C 3.828125 32.246094 3.449219 32.042969 3.089844 31.804688 C 2.730469 31.5625 2.398438 31.289062 2.089844 30.984375 C 1.785156 30.679688 1.511719 30.347656 1.273438 29.988281 C 1.03125 29.628906 0.828125 29.25 0.664062 28.847656 C 0.5 28.449219 0.375 28.039062 0.289062 27.613281 C 0.207031 27.191406 0.164062 26.761719 0.164062 26.332031 C 0.164062 25.898438 0.207031 25.46875 0.289062 25.046875 C 0.375 24.621094 0.5 24.210938 0.664062 23.8125 C 0.828125 23.414062 1.03125 23.035156 1.273438 22.675781 C 1.511719 22.316406 1.785156 21.984375 2.089844 21.675781 C 2.398438 21.371094 2.730469 21.097656 3.089844 20.859375 C 3.449219 20.617188 3.828125 20.414062 4.226562 20.25 C 4.625 20.085938 5.039062 19.960938 5.460938 19.875 C 5.886719 19.792969 6.3125 19.75 6.746094 19.75 C 7.175781 19.75 7.605469 19.792969 8.027344 19.875 C 8.453125 19.960938 8.863281 20.085938 9.261719 20.25 C 9.664062 20.414062 10.042969 20.617188 10.402344 20.859375 C 10.761719 21.097656 11.09375 21.371094 11.398438 21.675781 C 11.703125 21.984375 11.976562 22.316406 12.21875 22.675781 C 12.457031 23.035156 12.660156 23.414062 12.824219 23.8125 C 12.992188 24.210938 13.117188 24.621094 13.199219 25.046875 C 13.285156 25.46875 13.324219 25.898438 13.324219 26.332031 Z M 13.324219 26.332031 "/></g><g clip-rule="nonzero" clip-path="url(#abeb42e443)"><path style=" stroke:none;fill-rule:nonzero;fill:#fbf0d4;fill-opacity:1;" d="M 13.324219 6.585938 C 13.324219 7.019531 13.285156 7.445312 13.199219 7.871094 C 13.117188 8.292969 12.992188 8.707031 12.824219 9.105469 C 12.660156 9.503906 12.457031 9.882812 12.21875 10.242188 C 11.976562 10.601562 11.703125 10.933594 11.398438 11.242188 C 11.09375 11.546875 10.761719 11.820312 10.402344 12.058594 C 10.042969 12.300781 9.664062 12.5 9.261719 12.667969 C 8.863281 12.832031 8.453125 12.957031 8.027344 13.042969 C 7.605469 13.125 7.175781 13.167969 6.746094 13.167969 C 6.3125 13.167969 5.886719 13.125 5.460938 13.042969 C 5.039062 12.957031 4.625 12.832031 4.226562 12.667969 C 3.828125 12.5 3.449219 12.300781 3.089844 12.058594 C 2.730469 11.820312 2.398438 11.546875 2.089844 11.242188 C 1.785156 10.933594 1.511719 10.601562 1.273438 10.242188 C 1.03125 9.882812 0.828125 9.503906 0.664062 9.105469 C 0.5 8.707031 0.375 8.292969 0.289062 7.871094 C 0.207031 7.445312 0.164062 7.019531 0.164062 6.585938 C 0.164062 6.15625 0.207031 5.726562 0.289062 5.304688 C 0.375 4.878906 0.5 4.46875 0.664062 4.070312 C 0.828125 3.667969 1.03125 3.289062 1.273438 2.929688 C 1.511719 2.570312 1.785156 2.238281 2.089844 1.933594 C 2.398438 1.628906 2.730469 1.355469 3.089844 1.113281 C 3.449219 0.875 3.828125 0.671875 4.226562 0.507812 C 4.625 0.339844 5.039062 0.214844 5.460938 0.132812 C 5.886719 0.046875 6.3125 0.00390625 6.746094 0.00390625 C 7.175781 0.00390625 7.605469 0.046875 8.027344 0.132812 C 8.453125 0.214844 8.863281 0.339844 9.261719 0.507812 C 9.664062 0.671875 10.042969 0.875 10.402344 1.113281 C 10.761719 1.355469 11.09375 1.628906 11.398438 1.933594 C 11.703125 2.238281 11.976562 2.570312 12.21875 2.929688 C 12.457031 3.289062 12.660156 3.667969 12.824219 4.070312 C 12.992188 4.46875 13.117188 4.878906 13.199219 5.304688 C 13.285156 5.726562 13.324219 6.15625 13.324219 6.585938 Z M 13.324219 6.585938 "/></g><g clip-rule="nonzero" clip-path="url(#2588032eda)"><path style=" stroke:none;fill-rule:nonzero;fill:#fbf0d4;fill-opacity:1;" d="M 13.324219 46.074219 C 13.324219 46.507812 13.285156 46.933594 13.199219 47.359375 C 13.117188 47.78125 12.992188 48.195312 12.824219 48.59375 C 12.660156 48.992188 12.457031 49.371094 12.21875 49.730469 C 11.976562 50.089844 11.703125 50.421875 11.398438 50.726562 C 11.09375 51.035156 10.761719 51.304688 10.402344 51.546875 C 10.042969 51.785156 9.664062 51.988281 9.261719 52.15625 C 8.863281 52.320312 8.453125 52.445312 8.027344 52.527344 C 7.605469 52.613281 7.175781 52.65625 6.746094 52.65625 C 6.3125 52.65625 5.886719 52.613281 5.460938 52.527344 C 5.039062 52.445312 4.625 52.320312 4.226562 52.15625 C 3.828125 51.988281 3.449219 51.785156 3.089844 51.546875 C 2.730469 51.304688 2.398438 51.035156 2.089844 50.726562 C 1.785156 50.421875 1.511719 50.089844 1.273438 49.730469 C 1.03125 49.371094 0.828125 48.992188 0.664062 48.59375 C 0.5 48.195312 0.375 47.78125 0.289062 47.359375 C 0.207031 46.933594 0.164062 46.507812 0.164062 46.074219 C 0.164062 45.640625 0.207031 45.214844 0.289062 44.789062 C 0.375 44.367188 0.5 43.957031 0.664062 43.554688 C 0.828125 43.15625 1.03125 42.777344 1.273438 42.417969 C 1.511719 42.058594 1.785156 41.726562 2.089844 41.421875 C 2.398438 41.117188 2.730469 40.84375 3.089844 40.601562 C 3.449219 40.363281 3.828125 40.160156 4.226562 39.996094 C 4.625 39.828125 5.039062 39.703125 5.460938 39.621094 C 5.886719 39.535156 6.3125 39.492188 6.746094 39.492188 C 7.175781 39.492188 7.605469 39.535156 8.027344 39.621094 C 8.453125 39.703125 8.863281 39.828125 9.261719 39.996094 C 9.664062 40.160156 10.042969 40.363281 10.402344 40.601562 C 10.761719 40.84375 11.09375 41.117188 11.398438 41.421875 C 11.703125 41.726562 11.976562 42.058594 12.21875 42.417969 C 12.457031 42.777344 12.660156 43.15625 12.824219 43.554688 C 12.992188 43.957031 13.117188 44.367188 13.199219 44.789062 C 13.285156 45.214844 13.324219 45.640625 13.324219 46.074219 Z M 13.324219 46.074219 "/></g></g></svg>