<svg xmlns="http://www.w3.org/2000/svg" xmlns:xlink="http://www.w3.org/1999/xlink" width="80" zoomAndPan="magnify" viewBox="0 0 60 74.249996" height="99" preserveAspectRatio="xMidYMid meet" version="1.2"><defs><clipPath id="aff653be9b"><path d="M 0.300781 40 L 58.957031 40 L 58.957031 73.507812 L 0.300781 73.507812 Z M 0.300781 40 "/></clipPath></defs><g id="25a9129e69"><g clip-rule="nonzero" clip-path="url(#aff653be9b)"><path style=" stroke:none;fill-rule:nonzero;fill:#fbf0d4;fill-opacity:1;" d="M 35.128906 40.328125 L 24.128906 40.328125 C 23.347656 40.328125 22.570312 40.367188 21.792969 40.445312 C 21.019531 40.523438 20.246094 40.636719 19.484375 40.789062 C 18.71875 40.945312 17.960938 41.132812 17.214844 41.359375 C 16.46875 41.585938 15.734375 41.851562 15.015625 42.148438 C 14.292969 42.449219 13.589844 42.78125 12.902344 43.148438 C 12.214844 43.519531 11.546875 43.917969 10.898438 44.351562 C 10.25 44.785156 9.621094 45.25 9.019531 45.746094 C 8.417969 46.242188 7.839844 46.765625 7.289062 47.316406 C 6.734375 47.867188 6.210938 48.445312 5.71875 49.046875 C 5.222656 49.652344 4.757812 50.277344 4.324219 50.925781 C 3.890625 51.574219 3.488281 52.242188 3.121094 52.929688 C 2.753906 53.617188 2.421875 54.324219 2.121094 55.042969 C 1.824219 55.765625 1.558594 56.496094 1.332031 57.242188 C 1.105469 57.988281 0.914062 58.746094 0.761719 59.511719 C 0.609375 60.277344 0.496094 61.046875 0.417969 61.824219 C 0.339844 62.597656 0.300781 63.378906 0.300781 64.15625 L 0.300781 71.492188 C 0.300781 71.734375 0.347656 71.96875 0.441406 72.191406 C 0.53125 72.417969 0.664062 72.613281 0.835938 72.785156 C 1.007812 72.957031 1.207031 73.089844 1.429688 73.183594 C 1.65625 73.277344 1.890625 73.324219 2.132812 73.324219 L 57.125 73.324219 C 57.367188 73.324219 57.601562 73.277344 57.824219 73.183594 C 58.050781 73.089844 58.25 72.957031 58.421875 72.785156 C 58.59375 72.613281 58.726562 72.417969 58.816406 72.191406 C 58.910156 71.96875 58.957031 71.734375 58.957031 71.492188 L 58.957031 64.15625 C 58.957031 63.378906 58.917969 62.597656 58.839844 61.824219 C 58.761719 61.046875 58.648438 60.277344 58.496094 59.511719 C 58.34375 58.746094 58.152344 57.988281 57.925781 57.242188 C 57.699219 56.496094 57.433594 55.765625 57.136719 55.042969 C 56.835938 54.324219 56.503906 53.617188 56.136719 52.929688 C 55.765625 52.242188 55.367188 51.574219 54.933594 50.925781 C 54.5 50.277344 54.035156 49.652344 53.539062 49.046875 C 53.046875 48.445312 52.523438 47.867188 51.96875 47.316406 C 51.417969 46.765625 50.839844 46.242188 50.238281 45.746094 C 49.636719 45.25 49.007812 44.785156 48.359375 44.351562 C 47.710938 43.917969 47.042969 43.519531 46.355469 43.148438 C 45.667969 42.78125 44.964844 42.449219 44.242188 42.148438 C 43.523438 41.851562 42.789062 41.585938 42.042969 41.359375 C 41.296875 41.132812 40.539062 40.945312 39.773438 40.789062 C 39.011719 40.636719 38.238281 40.523438 37.460938 40.445312 C 36.6875 40.367188 35.90625 40.328125 35.128906 40.328125 Z M 35.128906 40.328125 "/></g><path style=" stroke:none;fill-rule:nonzero;fill:#fbf0d4;fill-opacity:1;" d="M 47.960938 18.332031 C 47.960938 18.933594 47.929688 19.53125 47.871094 20.128906 C 47.8125 20.726562 47.722656 21.320312 47.605469 21.90625 C 47.488281 22.496094 47.34375 23.078125 47.167969 23.652344 C 46.996094 24.226562 46.792969 24.792969 46.5625 25.347656 C 46.335938 25.902344 46.078125 26.445312 45.792969 26.972656 C 45.511719 27.503906 45.203125 28.015625 44.871094 28.515625 C 44.535156 29.015625 44.179688 29.496094 43.796875 29.960938 C 43.417969 30.425781 43.015625 30.867188 42.589844 31.292969 C 42.164062 31.71875 41.722656 32.121094 41.257812 32.5 C 40.792969 32.882812 40.3125 33.238281 39.8125 33.574219 C 39.3125 33.90625 38.800781 34.214844 38.269531 34.496094 C 37.738281 34.78125 37.199219 35.039062 36.644531 35.265625 C 36.089844 35.496094 35.523438 35.699219 34.949219 35.875 C 34.375 36.046875 33.792969 36.191406 33.203125 36.308594 C 32.617188 36.425781 32.023438 36.515625 31.425781 36.574219 C 30.828125 36.632812 30.230469 36.664062 29.628906 36.664062 C 29.027344 36.664062 28.429688 36.632812 27.832031 36.574219 C 27.234375 36.515625 26.640625 36.425781 26.050781 36.308594 C 25.464844 36.191406 24.882812 36.046875 24.308594 35.875 C 23.734375 35.699219 23.167969 35.496094 22.613281 35.265625 C 22.058594 35.039062 21.515625 34.78125 20.988281 34.496094 C 20.457031 34.214844 19.945312 33.90625 19.445312 33.574219 C 18.945312 33.238281 18.464844 32.882812 18 32.5 C 17.535156 32.121094 17.089844 31.71875 16.667969 31.292969 C 16.242188 30.867188 15.839844 30.425781 15.460938 29.960938 C 15.078125 29.496094 14.722656 29.015625 14.386719 28.515625 C 14.054688 28.015625 13.746094 27.503906 13.460938 26.972656 C 13.179688 26.445312 12.921875 25.902344 12.695312 25.347656 C 12.464844 24.792969 12.261719 24.226562 12.085938 23.652344 C 11.914062 23.078125 11.769531 22.496094 11.652344 21.90625 C 11.535156 21.320312 11.445312 20.726562 11.386719 20.128906 C 11.328125 19.53125 11.296875 18.933594 11.296875 18.332031 C 11.296875 17.730469 11.328125 17.132812 11.386719 16.535156 C 11.445312 15.9375 11.535156 15.34375 11.652344 14.753906 C 11.769531 14.167969 11.914062 13.585938 12.085938 13.011719 C 12.261719 12.4375 12.464844 11.871094 12.695312 11.316406 C 12.921875 10.761719 13.179688 10.21875 13.460938 9.691406 C 13.746094 9.160156 14.054688 8.648438 14.386719 8.148438 C 14.722656 7.648438 15.078125 7.167969 15.460938 6.703125 C 15.839844 6.238281 16.242188 5.792969 16.667969 5.371094 C 17.089844 4.945312 17.535156 4.542969 18 4.164062 C 18.464844 3.78125 18.945312 3.425781 19.445312 3.089844 C 19.945312 2.757812 20.457031 2.449219 20.988281 2.164062 C 21.515625 1.882812 22.058594 1.625 22.613281 1.398438 C 23.167969 1.167969 23.734375 0.964844 24.308594 0.789062 C 24.882812 0.617188 25.464844 0.472656 26.050781 0.355469 C 26.640625 0.238281 27.234375 0.148438 27.832031 0.0898438 C 28.429688 0.03125 29.027344 0 29.628906 0 C 30.230469 0 30.828125 0.03125 31.425781 0.0898438 C 32.023438 0.148438 32.617188 0.238281 33.203125 0.355469 C 33.792969 0.472656 34.375 0.617188 34.949219 0.789062 C 35.523438 0.964844 36.089844 1.167969 36.644531 1.398438 C 37.199219 1.625 37.738281 1.882812 38.269531 2.164062 C 38.800781 2.449219 39.3125 2.757812 39.8125 3.089844 C 40.3125 3.425781 40.792969 3.78125 41.257812 4.164062 C 41.722656 4.542969 42.164062 4.945312 42.589844 5.371094 C 43.015625 5.792969 43.417969 6.238281 43.796875 6.703125 C 44.179688 7.167969 44.535156 7.648438 44.871094 8.148438 C 45.203125 8.648438 45.511719 9.160156 45.792969 9.691406 C 46.078125 10.21875 46.335938 10.761719 46.5625 11.316406 C 46.792969 11.871094 46.996094 12.4375 47.167969 13.011719 C 47.34375 13.585938 47.488281 14.167969 47.605469 14.753906 C 47.722656 15.34375 47.8125 15.9375 47.871094 16.535156 C 47.929688 17.132812 47.960938 17.730469 47.960938 18.332031 Z M 47.960938 18.332031 "/></g></svg>